# Blender v2.79 (sub 0) OBJ File: 'hex.blend'
# www.blender.org
mtllib hex-ToPrint.mtl
o ToPrint_Cylinder
v 0.000000 -1.166664 -57.734867
v 0.000000 1.166664 -57.734867
v 49.999863 -1.166664 -28.867432
v 49.999863 1.166664 -28.867432
v 49.999859 -1.166664 28.867437
v 49.999859 1.166664 28.867437
v -0.000005 -1.166664 57.734867
v -0.000005 1.166664 57.734867
v -49.999863 -1.166664 28.867428
v -49.999863 1.166664 28.867428
v -49.999863 -1.166664 -28.867428
v -49.999863 1.166664 -28.867428
v -0.000000 1.166664 -54.848129
v 47.499878 1.166664 -27.424063
v 47.499874 1.166664 27.424068
v -0.000005 1.166664 54.848129
v -47.499878 1.166664 27.424059
v -47.499878 1.166664 -27.424059
v -0.000000 1.833329 -54.848129
v 47.499878 1.833329 -27.424063
v 47.499874 1.833329 27.424068
v -0.000005 1.833329 54.848129
v -47.499878 1.833329 27.424059
v -47.499878 1.833329 -27.424059
v -33.444973 -1.166664 -38.425404
v -16.554890 -1.166664 -48.176895
v -16.666622 1.166664 -48.112385
v -33.333241 1.166664 -38.489906
v -15.833294 1.166664 -45.706776
v -31.666588 1.166664 -36.565414
v -15.833294 1.833329 -45.706776
v -31.666588 1.833329 -36.565414
v -49.999863 -1.166664 9.849008
v -49.999863 -1.166664 -9.849008
v -49.999863 1.166664 -9.622476
v -49.999863 1.166664 9.622476
v -47.499878 1.166664 -9.141352
v -47.499878 1.166664 9.141354
v -47.499878 1.833329 -9.141352
v -47.499878 1.833329 9.141354
v -16.470444 -1.166664 48.225647
v -33.529430 -1.166664 38.376640
v -33.333244 1.166664 38.489910
v -16.666624 1.166664 48.112389
v -31.666588 1.166664 36.565414
v -15.833295 1.166664 45.706776
v -31.666588 1.833329 36.565414
v -15.833295 1.833329 45.706776
v 33.333241 -1.166664 38.489918
v 16.666618 -1.166664 48.112392
v 16.666616 1.166664 48.112392
v 33.333241 1.166664 38.489918
v 15.833288 1.166664 45.706776
v 31.666580 1.166664 36.565422
v 15.833288 1.833329 45.706776
v 31.666580 1.833329 36.565422
v 49.999863 -1.166664 -9.622476
v 49.999863 -1.166664 9.622480
v 49.999859 1.166664 9.622480
v 49.999863 1.166664 -9.622476
v 47.499874 1.166664 9.141357
v 47.499874 1.166664 -9.141354
v 47.499874 1.833329 9.141357
v 47.499874 1.833329 -9.141354
v 16.666622 -1.166664 -48.112389
v 33.333241 -1.166664 -38.489910
v 33.333241 1.166664 -38.489910
v 16.666620 1.166664 -48.112389
v 31.666584 1.166664 -36.565418
v 15.833292 1.166664 -45.706776
v 31.666584 1.833329 -36.565418
v 15.833292 1.833329 -45.706776
v 0.000000 0.166979 -57.734867
v 49.999863 0.166979 -28.867432
v 49.999859 0.166979 28.867437
v -0.000005 0.166979 57.734867
v -49.999863 0.300312 28.867428
v -49.999863 0.300312 -28.867428
v -33.444973 0.300312 -38.425404
v -16.554890 0.300312 -48.176891
v -49.999863 0.300312 9.849008
v -49.999863 0.300312 -9.849008
v -16.470442 0.300312 48.225647
v -33.529430 0.300312 38.376648
v 33.333241 0.166979 38.489918
v 16.666616 0.166979 48.112392
v 49.999863 0.166979 -9.622476
v 49.999863 0.166979 9.622480
v 16.666620 0.166979 -48.112389
v 33.333241 0.166979 -38.489910
v 53.999855 -1.166664 -10.584725
v 53.999855 -1.166664 10.584730
v 53.999855 0.166979 -10.584725
v 53.999855 0.166979 10.584730
v 36.166569 -1.166663 41.472885
v 17.833282 -1.166663 52.057606
v 36.166569 0.166980 41.472885
v 17.833279 0.166980 52.057606
v 17.833284 -1.166663 -52.057602
v 36.166565 -1.166663 -41.472878
v 17.833284 0.166980 -52.057602
v 36.166565 0.166980 -41.472878
v -32.382378 -1.166668 -34.420101
v -13.617493 -1.166668 -45.254013
v -32.373932 0.300308 -34.424980
v -13.625940 0.300308 -45.249130
v -45.999874 -1.166664 10.833909
v -45.999874 -1.166664 -10.833909
v -45.999874 0.300312 10.833909
v -45.999874 0.300312 -10.833909
v -13.617497 -1.166660 45.254005
v -32.382385 -1.166660 34.420097
v -13.617495 0.300315 45.254005
v -32.382385 0.300315 34.420101
v 36.833237 -1.166662 42.627583
v 18.499947 -1.166662 53.212307
v 36.833237 0.166980 42.627583
v 18.499943 0.166980 53.212307
v 55.333183 -1.166664 -10.584725
v 55.333183 -1.166664 10.584730
v 55.333183 0.166979 -10.584725
v 55.333183 0.166979 10.584730
v 18.499950 -1.166663 -53.212299
v 36.833233 -1.166663 -42.627575
v 18.499949 0.166980 -53.212299
v 36.833233 0.166980 -42.627575
v -31.649044 -1.166669 -33.149937
v -12.884161 -1.166669 -43.983849
v -31.640598 0.300307 -33.154816
v -12.892609 0.300307 -43.978966
v -44.533215 -1.166664 10.833909
v -44.533215 -1.166664 -10.833909
v -44.533215 0.300312 10.833909
v -44.533215 0.300312 -10.833909
v -12.884166 -1.166659 43.983841
v -31.649050 -1.166659 33.149933
v -12.884164 0.300316 43.983841
v -31.649050 0.300316 33.149937
vn 0.5000 0.0000 -0.8660
vn 1.0000 0.0000 0.0000
vn 0.5000 0.0000 0.8660
vn -0.5000 0.0000 0.8660
vn -1.0000 0.0000 0.0000
vn -0.5000 -0.0000 -0.8660
vn 0.0000 1.0000 0.0000
vn 0.7251 0.0000 0.6887
vn 0.0000 -1.0000 0.0000
vn 0.9605 -0.0000 0.2784
vn 0.0000 0.0000 1.0000
vn -0.2339 0.0000 -0.9723
vn -0.2339 0.0000 0.9723
vn -0.8660 -0.0000 0.5000
vn 0.7251 0.0000 -0.6887
vn -0.9589 -0.0000 0.2836
vn -0.9589 -0.0000 -0.2836
vn 0.9663 -0.0032 -0.2575
vn -0.7062 -0.0032 0.7081
vn 0.2391 0.0000 -0.9710
vn 0.2391 0.0000 0.9710
vn -0.7214 0.0000 -0.6926
vn -0.8660 -0.0067 0.5000
vn 0.8660 -0.0067 -0.5000
vn 0.8660 0.0000 0.5000
vn 0.0000 0.0000 -1.0000
vn 0.8660 0.0000 -0.5000
vn -0.8660 -0.0000 -0.5000
usemtl None
s off
f 90//1 67//1 4//1 74//1
f 88//2 59//2 6//2 75//2
f 86//3 51//3 8//3 76//3
f 84//4 43//4 10//4 77//4
f 82//5 35//5 12//5 78//5
f 80//6 27//6 2//6 73//6
f 28//7 12//7 18//7 30//7
f 44//7 8//7 16//7 46//7
f 60//7 4//7 14//7 62//7
f 36//7 10//7 17//7 38//7
f 68//7 2//7 13//7 70//7
f 52//7 6//7 15//7 54//7
f 30//6 18//6 24//6 32//6
f 46//4 16//4 22//4 48//4
f 62//2 14//2 20//2 64//2
f 38//5 17//5 23//5 40//5
f 54//3 15//3 21//3 56//3
f 70//1 13//1 19//1 72//1
f 20//7 71//7 72//7 19//7 31//7 32//7 24//7 39//7 40//7 23//7 47//7 48//7 22//7 55//7 56//7 21//7 63//7 64//7
f 13//6 29//6 31//6 19//6
f 29//6 30//6 32//6 31//6
f 2//7 27//7 29//7 13//7
f 27//7 28//7 30//7 29//7
f 78//6 12//6 28//6 79//6
f 79//6 28//6 27//6 80//6
f 18//5 37//5 39//5 24//5
f 37//5 38//5 40//5 39//5
f 12//7 35//7 37//7 18//7
f 35//7 36//7 38//7 37//7
f 77//5 10//5 36//5 81//5
f 81//5 36//5 35//5 82//5
f 17//4 45//4 47//4 23//4
f 45//4 46//4 48//4 47//4
f 10//7 43//7 45//7 17//7
f 43//7 44//7 46//7 45//7
f 76//4 8//4 44//4 83//4
f 83//4 44//4 43//4 84//4
f 16//3 53//3 55//3 22//3
f 53//3 54//3 56//3 55//3
f 8//7 51//7 53//7 16//7
f 51//7 52//7 54//7 53//7
f 75//3 6//3 52//3 85//3
f 85//3 52//3 51//3 86//3
f 15//2 61//2 63//2 21//2
f 61//2 62//2 64//2 63//2
f 6//7 59//7 61//7 15//7
f 59//7 60//7 62//7 61//7
f 74//2 4//2 60//2 87//2
f 87//2 60//2 59//2 88//2
f 14//1 69//1 71//1 20//1
f 69//1 70//1 72//1 71//1
f 4//7 67//7 69//7 14//7
f 67//7 68//7 70//7 69//7
f 73//1 2//1 68//1 89//1
f 89//1 68//1 67//1 90//1
f 90//8 66//8 100//8 102//8
f 1//1 73//1 89//1 65//1
f 58//9 57//9 91//9 92//9
f 3//2 74//2 87//2 57//2
f 50//9 49//9 95//9 96//9
f 5//3 75//3 85//3 49//3
f 84//10 42//10 112//10 114//10
f 7//4 76//4 83//4 41//4
f 9//5 77//5 81//5 33//5
f 11//6 78//6 79//6 25//6
f 26//6 80//6 73//6 1//6
f 34//5 82//5 78//5 11//5
f 42//4 84//4 77//4 9//4
f 50//3 86//3 76//3 7//3
f 58//2 88//2 75//2 5//2
f 66//1 90//1 74//1 3//1
f 94//11 92//11 120//11 122//11
f 57//12 87//12 93//12 91//12
f 87//7 88//7 94//7 93//7
f 88//13 58//13 92//13 94//13
f 98//14 96//14 116//14 118//14
f 49//15 85//15 97//15 95//15
f 86//16 50//16 96//16 98//16
f 85//7 86//7 98//7 97//7
f 101//7 102//7 126//7 125//7
f 66//9 65//9 99//9 100//9
f 65//17 89//17 101//17 99//17
f 89//7 90//7 102//7 101//7
f 25//18 79//18 105//18 103//18
f 80//19 26//19 104//19 106//19
f 79//9 80//9 106//9 105//9
f 109//9 110//9 134//9 133//9
f 33//20 81//20 109//20 107//20
f 81//9 82//9 110//9 109//9
f 82//21 34//21 108//21 110//21
f 114//9 138//9 137//9 113//9
f 83//9 84//9 114//9 113//9
f 41//22 83//22 113//22 111//22
f 106//9 130//9 129//9 105//9
f 106//23 104//23 128//23 130//23
f 105//24 129//24 127//24 103//24
f 108//11 132//11 134//11 110//11
f 112//25 136//25 138//25 114//25
f 109//26 133//26 131//26 107//26
f 115//3 117//3 118//3 116//3
f 96//9 95//9 115//9 116//9
f 97//7 98//7 118//7 117//7
f 95//27 97//27 117//27 115//27
f 119//2 121//2 122//2 120//2
f 92//9 91//9 119//9 120//9
f 93//7 94//7 122//7 121//7
f 91//26 93//26 121//26 119//26
f 123//1 125//1 126//1 124//1
f 99//28 101//28 125//28 123//28
f 102//25 100//25 124//25 126//25
f 100//9 99//9 123//9 124//9
f 127//6 129//6 130//6 128//6
f 131//5 133//5 134//5 132//5
f 135//4 137//4 138//4 136//4
f 66//9 3//9 57//9 58//9 5//9 49//9 50//9 7//9 41//9 111//9 135//9 136//9 112//9 42//9 9//9 33//9 107//9 131//9 132//9 108//9 34//9 11//9 25//9 103//9 127//9 128//9 104//9 26//9 1//9 65//9
f 111//28 113//28 137//28 135//28
